<svg width="425.2" height="425.2" xmlns="http://www.w3.org/2000/svg" xml:space="preserve" version="1.1">
 <defs>
  <linearGradient y2="0.27829" x2="0.72672" y1="1.10622" x1="0.0228" id="SVGID_1_">
   <stop stop-color="#FFFFFF" offset="0.1945"/>
   <stop stop-color="#4E4643" offset="0.4881"/>
   <stop stop-color="#000000" offset="0.6956"/>
   <stop stop-color="#000000" offset="0.7891"/>
  </linearGradient>
  <linearGradient y2="-0.04161" x2="0.80591" y1="1.11925" x1="0.12663" id="SVGID_00000085232896530361715140000003709800068047185077_">
   <stop stop-color="#FFFFFF" offset="0.1945"/>
   <stop stop-color="#4E4643" offset="0.3658"/>
   <stop stop-color="#000000" offset="0.4869"/>
   <stop stop-color="#000000" offset="0.5415"/>
  </linearGradient>
 </defs>
 <g>
  <title>Layer 1</title>
  <g id="svg_2">
   <g id="svg_3">
    <polygon id="svg_4" fill="#FFFFFF" points="425.2,27.053 358.441,27.053 336.58,18.99 293.951,18.99 293.951,20.333 336.34,20.333     358.201,28.396 425.2,28.396   "/>
    <path id="svg_5" fill="#FFFFFF" d="m425.2,35.165l-104.845,0c-0.309,-1.424 -1.577,-2.496 -3.094,-2.496c-1.744,0 -3.164,1.421 -3.164,3.167c0,1.747 1.42,3.167 3.164,3.167c1.517,0 2.785,-1.071 3.094,-2.496l104.845,0l0,-1.342zm-107.938,2.496c-1.004,0 -1.82,-0.819 -1.82,-1.825c0,-1.005 0.816,-1.824 1.82,-1.824c1.008,0 1.826,0.819 1.826,1.824c0,1.006 -0.818,1.825 -1.826,1.825z"/>
    <path id="svg_6" fill="#FFFFFF" d="m307.514,78.888l-12.147,0l0,1.342l12.553,0l6.072,-4.046l15.826,0l9.004,4.688c-0.002,0.046 -0.015,0.091 -0.015,0.138c0,1.747 1.421,3.168 3.167,3.168c1.747,0 3.168,-1.421 3.168,-3.168c0,-1.746 -1.421,-3.166 -3.168,-3.166c-1.215,0 -2.26,0.696 -2.791,1.702l-9.037,-4.705l-16.561,0l-6.071,4.047zm34.461,0.3c1.006,0 1.824,0.818 1.824,1.823c0,1.007 -0.818,1.826 -1.824,1.826c-1.006,0 -1.824,-0.819 -1.824,-1.826c-0.001,-1.006 0.818,-1.823 1.824,-1.823z"/>
    <path id="svg_7" fill="#FFFFFF" d="m425.2,42.661l-76.722,0l-12.609,6.479l-24.654,0c-0.281,-1.461 -1.564,-2.569 -3.107,-2.569c-1.746,0 -3.166,1.421 -3.166,3.167c0,1.747 1.42,3.167 3.166,3.167c1.49,0 2.733,-1.036 3.07,-2.423l25.018,0l12.607,-6.478l76.397,0l0,-1.343zm-117.093,8.901c-1.006,0 -1.824,-0.818 -1.824,-1.825c0,-1.006 0.818,-1.825 1.824,-1.825c1.007,0 1.826,0.819 1.826,1.825c0.001,1.007 -0.819,1.825 -1.826,1.825z"/>
    <polygon id="svg_8" fill="#FFFFFF" points="425.2,51.562 386.395,51.562 363.522,60.872 289.903,60.872 289.903,62.215     363.785,62.215 386.658,52.904 425.2,52.904   "/>
    <rect id="svg_9" fill="#FFFFFF" height="1.343" width="107.666" y="69.191" x="317.534"/>
    <path id="svg_10" fill="#FFFFFF" d="m425.2,80.799l-4.565,-4.037l-45.078,0l-22.304,12.145l-42.71,0c-0.309,-1.424 -1.575,-2.494 -3.09,-2.494c-1.747,0 -3.168,1.419 -3.168,3.165c0,1.747 1.421,3.167 3.168,3.167c1.516,0 2.781,-1.071 3.09,-2.496l43.052,0l22.304,-12.146l44.227,0l5.075,4.487l0,-1.791l-0.001,0zm-117.747,10.604c-1.006,0 -1.824,-0.818 -1.824,-1.824c0,-1.005 0.818,-1.823 1.824,-1.823c1.005,0 1.822,0.818 1.822,1.823c0,1.006 -0.817,1.824 -1.822,1.824z"/>
   </g>
   <g id="svg_11">
    <polygon id="svg_12" fill="#FFFFFF" points="0,100.214 66.759,100.214 88.62,92.151 131.249,92.151 131.249,93.494 88.86,93.494     66.999,101.557 0,101.557   "/>
    <path id="svg_13" fill="#FFFFFF" d="m0,109.669l104.845,0c0.309,1.425 1.577,2.496 3.094,2.496c1.744,0 3.164,-1.421 3.164,-3.167s-1.42,-3.167 -3.164,-3.167c-1.517,0 -2.785,1.071 -3.094,2.496l-104.845,0l0,1.342zm106.112,-0.672c0,-1.005 0.818,-1.824 1.826,-1.824c1.004,0 1.82,0.819 1.82,1.824c0,1.006 -0.816,1.825 -1.82,1.825c-1.007,0 -1.826,-0.819 -1.826,-1.825z"/>
    <path id="svg_14" fill="#FFFFFF" d="m111.614,148.002l-16.56,0l-9.037,4.705c-0.531,-1.006 -1.576,-1.702 -2.791,-1.702c-1.747,0 -3.168,1.42 -3.168,3.166c0,1.747 1.421,3.168 3.168,3.168c1.746,0 3.167,-1.421 3.167,-3.168c0,-0.047 -0.013,-0.092 -0.015,-0.138l9.004,-4.688l15.826,0l6.072,4.046l12.553,0l0,-1.342l-12.146,0l-6.073,-4.047zm-26.564,6.169c0,1.007 -0.818,1.826 -1.824,1.826c-1.006,0 -1.824,-0.819 -1.824,-1.826c0,-1.005 0.818,-1.823 1.824,-1.823c1.005,0.001 1.824,0.819 1.824,1.823z"/>
    <path id="svg_15" fill="#FFFFFF" d="m0,117.165l76.397,0l12.607,6.478l25.018,0c0.337,1.387 1.58,2.423 3.07,2.423c1.746,0 3.166,-1.42 3.166,-3.167c0,-1.746 -1.42,-3.167 -3.166,-3.167c-1.543,0 -2.826,1.108 -3.107,2.569l-24.654,0l-12.609,-6.479l-76.722,0l0,1.343zm115.267,5.733c0,-1.006 0.819,-1.825 1.826,-1.825c1.006,0 1.824,0.819 1.824,1.825c0,1.006 -0.818,1.825 -1.824,1.825c-1.007,0 -1.826,-0.818 -1.826,-1.825z"/>
    <polygon id="svg_16" fill="#FFFFFF" points="0,124.723 38.806,124.723 61.679,134.033 135.297,134.033 135.297,135.376 61.415,135.376     38.542,126.065 0,126.065   "/>
    <rect id="svg_17" fill="#FFFFFF" height="1.343" width="107.666" y="142.352" x="0"/>
    <path id="svg_18" fill="#FFFFFF" d="m0,155.753l5.075,-4.487l44.227,0l22.304,12.146l43.052,0c0.309,1.424 1.574,2.496 3.09,2.496c1.747,0 3.168,-1.42 3.168,-3.167c0,-1.746 -1.421,-3.165 -3.168,-3.165c-1.515,0 -2.781,1.07 -3.09,2.494l-42.71,0l-22.304,-12.145l-45.079,0l-4.565,4.035l0,1.793zm115.925,6.987c0,-1.005 0.817,-1.823 1.822,-1.823c1.006,0 1.824,0.818 1.824,1.823c0,1.006 -0.818,1.824 -1.824,1.824c-1.005,0 -1.822,-0.818 -1.822,-1.824z"/>
   </g>
   <path id="svg_19" fill="#D1D3D4" d="m299.4,342.223c0,6.37 -38.996,11.535 -87.103,11.535c-48.105,0 -87.104,-5.165 -87.104,-11.535c0,-6.372 38.998,-11.537 87.104,-11.537c48.107,0 87.103,5.166 87.103,11.537z"/>
   <g id="svg_20">
    <rect id="svg_21" fill="#071938" height="32.484" width="7.418" y="119.364" x="131.139"/>
    <rect id="svg_22" fill="#071938" height="16.242" width="7.418" y="159.01" x="131.139"/>
    <path id="svg_23" fill="#071938" d="m287.502,336.479c0,2.789 -2.256,5.043 -5.047,5.043l-142.4,0c-2.789,0 -5.047,-2.255 -5.047,-5.043l0,-241.965c0,-2.783 2.258,-5.041 5.047,-5.041l142.4,0c2.791,0 5.047,2.258 5.047,5.041l0,241.965z"/>
    <rect id="svg_24" fill="#00B2D6" height="223.691" width="152.494" y="103.656" x="135.008"/>
    <g id="svg_25">
     <g id="svg_26">
      <path id="svg_27" fill="#00B2D6" d="m224.883,97.508c0,0.914 -0.74,1.656 -1.654,1.656l-23.945,0c-0.916,0 -1.656,-0.742 -1.656,-1.656l0,0c0,-0.911 0.74,-1.659 1.656,-1.659l23.945,0c0.914,0 1.654,0.748 1.654,1.659l0,0z"/>
      <path id="svg_28" fill="#00B2D6" d="m219.488,333.884c0,1.014 -0.822,1.835 -1.844,1.835l-12.783,0c-1.018,0 -1.84,-0.821 -1.84,-1.835l0,0c0,-1.017 0.822,-1.84 1.84,-1.84l12.783,0c1.022,0 1.844,0.824 1.844,1.84l0,0z"/>
     </g>
    </g>
    <g id="svg_29">
     <g id="svg_30">
      <g id="svg_31">
       <path id="svg_32" stroke-miterlimit="10" stroke-linejoin="round" stroke-linecap="round" stroke-width="1.7678" stroke="#FFFFFF" fill="none" d="m263.623,202.039c0,14.158 0,24.539 0,24.539s-9.746,0 -23.232,0"/>
       <path id="svg_33" stroke-miterlimit="10" stroke-linejoin="round" stroke-linecap="round" stroke-width="1.7678" stroke="#FFFFFF" fill="none" d="m160.971,148.709c0,-14.283 0,-24.783 0,-24.783s12.813,0 29.383,0"/>
       <path id="svg_34" stroke-miterlimit="10" stroke-linejoin="round" stroke-linecap="round" stroke-width="1.7678" stroke="#FFFFFF" fill="none" d="m239.084,123.926c14.158,0 24.539,0 24.539,0s0,9.745 0,23.23"/>
       <path id="svg_35" stroke-miterlimit="10" stroke-linejoin="round" stroke-linecap="round" stroke-width="1.7678" stroke="#FFFFFF" fill="none" d="m185.754,226.578c-14.283,0 -24.783,0 -24.783,0s0,-12.812 0,-29.382"/>
      </g>
      <g id="svg_36">
       <path id="svg_37" stroke-miterlimit="10" stroke-linejoin="round" stroke-linecap="round" stroke-width="1.4702" stroke="#FFFFFF" fill="none" d="m254.982,197.529c0,11.776 0,20.409 0,20.409s-8.105,0 -19.318,0"/>
       <path id="svg_38" stroke-miterlimit="10" stroke-linejoin="round" stroke-linecap="round" stroke-width="1.4702" stroke="#FFFFFF" fill="none" d="m169.611,153.177c0,-11.879 0,-20.61 0,-20.61s10.654,0 24.436,0"/>
       <path id="svg_39" stroke-miterlimit="10" stroke-linejoin="round" stroke-linecap="round" stroke-width="1.4702" stroke="#FFFFFF" fill="none" d="m234.574,132.566c11.775,0 20.408,0 20.408,0s0,8.105 0,19.319"/>
       <path id="svg_40" stroke-miterlimit="10" stroke-linejoin="round" stroke-linecap="round" stroke-width="1.4702" stroke="#FFFFFF" fill="none" d="m190.221,217.938c-11.877,0 -20.609,0 -20.609,0s0,-10.656 0,-24.436"/>
      </g>
     </g>
     <g id="svg_41">
      <polygon id="svg_42" stroke-miterlimit="10" stroke-width="0.5276" stroke="#FFFFFF" fill="none" points="191.523,189.237 213.238,200.515       230.768,190.56 239.176,171.583 238.658,149.035 186.293,149.035 182.166,170.189     "/>
      <polyline id="svg_43" stroke-miterlimit="10" stroke-width="0.5276" stroke="#FFFFFF" fill="none" points="191.523,189.237       211.895,179.005 230.768,190.56     "/>
      <polyline id="svg_44" stroke-miterlimit="10" stroke-width="0.5276" stroke="#FFFFFF" fill="none" points="211.895,176.581 211.76,157.079       238.658,149.035     "/>
      <polyline id="svg_45" stroke-miterlimit="10" stroke-width="0.5276" stroke="#FFFFFF" fill="none" points="238.783,170.535 211.76,156.481       183.137,169.704 212.344,178.011 238.658,171.583     "/>
      <polyline id="svg_46" stroke-miterlimit="10" stroke-width="0.5276" stroke="#FFFFFF" fill="none" points="192.295,188.345 211.76,157.079       185.348,150.814     "/>
      <line id="svg_47" stroke-miterlimit="10" stroke-width="0.5276" stroke="#FFFFFF" fill="none" y2="157.079" x2="211.76" y1="189.515" x1="230.58"/>
      <line id="svg_48" stroke-miterlimit="10" stroke-width="0.5276" stroke="#FFFFFF" fill="none" y2="178.011" x2="212.344" y1="200.515" x1="213.238"/>
      <path id="svg_49" fill="#FFFFFF" d="m188.359,150.503c0,1.24 -1.004,2.245 -2.244,2.245c-1.24,0 -2.244,-1.005 -2.244,-2.245c0,-1.24 1.004,-2.246 2.244,-2.246c1.24,0.001 2.244,1.006 2.244,2.246z"/>
      <path id="svg_50" fill="#FFFFFF" d="m214.004,157.079c0,1.24 -1.006,2.244 -2.244,2.244c-1.24,0 -2.246,-1.004 -2.246,-2.244c0,-1.24 1.006,-2.245 2.246,-2.245c1.238,0 2.244,1.005 2.244,2.245z"/>
      <path id="svg_51" fill="#FFFFFF" d="m240.193,149.035c0,1.24 -1.006,2.245 -2.244,2.245c-1.24,0 -2.244,-1.005 -2.244,-2.245c0,-1.24 1.004,-2.245 2.244,-2.245c1.239,0 2.244,1.004 2.244,2.245z"/>
      <path id="svg_52" fill="#FFFFFF" d="m184.412,170.189c0,1.239 -1.004,2.245 -2.246,2.245c-1.238,0 -2.244,-1.005 -2.244,-2.245c0,-1.24 1.006,-2.245 2.244,-2.245c1.242,0 2.246,1.005 2.246,2.245z"/>
      <path id="svg_53" fill="#FFFFFF" d="m215.484,200.515c0,1.24 -1.006,2.246 -2.246,2.246c-1.24,0 -2.244,-1.005 -2.244,-2.246c0,-1.239 1.004,-2.245 2.244,-2.245c1.241,0 2.246,1.005 2.246,2.245z"/>
      <path id="svg_54" fill="#FFFFFF" d="m214.588,178.011c0,1.239 -1.004,2.245 -2.244,2.245c-1.238,0 -2.246,-1.005 -2.246,-2.245c0,-1.24 1.008,-2.246 2.246,-2.246c1.24,0 2.244,1.005 2.244,2.246z"/>
      <path id="svg_55" fill="#FFFFFF" d="m241.678,171.053c0,1.239 -1.008,2.245 -2.246,2.245c-1.24,0 -2.244,-1.005 -2.244,-2.245c0,-1.24 1.004,-2.246 2.244,-2.246c1.238,0 2.246,1.006 2.246,2.246z"/>
      <path id="svg_56" fill="#FFFFFF" d="m193.77,189.237c0,1.24 -1.006,2.245 -2.246,2.245c-1.238,0 -2.244,-1.005 -2.244,-2.245c0,-1.24 1.006,-2.246 2.244,-2.246c1.24,0.001 2.246,1.006 2.246,2.246z"/>
      <path id="svg_57" fill="#FFFFFF" d="m233.012,190.56c0,1.24 -1.004,2.245 -2.244,2.245c-1.238,0 -2.244,-1.005 -2.244,-2.245c0,-1.239 1.006,-2.244 2.244,-2.244c1.24,-0.001 2.244,1.004 2.244,2.244z"/>
     </g>
    </g>
    <g id="svg_58">
     <path id="svg_59" fill="#314265" d="m243.863,275.077c0,1.198 -0.971,2.169 -2.168,2.169l-56.912,0c-1.197,0 -2.168,-0.971 -2.168,-2.169l0,-22.222c0,-1.198 0.971,-2.168 2.168,-2.168l56.912,0c1.197,0 2.168,0.97 2.168,2.168l0,22.222z"/>
     <g id="svg_60">
      <g id="svg_61">
       <path id="svg_62" fill="#FFFFFF" d="m197.432,261.035c-0.262,0 -0.457,-0.074 -0.586,-0.222c-0.131,-0.148 -0.195,-0.339 -0.195,-0.573l0,-3.609c0,-0.243 -0.066,-0.438 -0.195,-0.586c-0.131,-0.148 -0.326,-0.223 -0.586,-0.223c-0.27,0 -0.467,0.074 -0.594,0.223c-0.125,0.148 -0.188,0.343 -0.188,0.586c0,0.817 0.047,1.553 0.141,2.208c0.096,0.656 0.223,1.262 0.385,1.818c0.162,0.557 0.344,1.082 0.545,1.576c0.203,0.494 0.406,0.985 0.613,1.475c0.207,0.49 0.41,0.99 0.613,1.502c0.201,0.512 0.383,1.069 0.545,1.67c0.162,0.602 0.289,1.261 0.385,1.98c0.094,0.718 0.141,1.526 0.141,2.424c0,0.359 -0.061,0.68 -0.182,0.963c-0.121,0.283 -0.297,0.525 -0.525,0.728c-0.229,0.202 -0.504,0.357 -0.822,0.464c-0.318,0.108 -0.672,0.162 -1.057,0.162c-0.818,0 -1.453,-0.207 -1.906,-0.62c-0.453,-0.413 -0.68,-0.979 -0.68,-1.697l0,-4.122c0,-0.081 0.021,-0.148 0.066,-0.202c0.045,-0.054 0.113,-0.081 0.203,-0.081l0.754,0c0.26,0 0.455,0.074 0.586,0.222c0.129,0.148 0.195,0.339 0.195,0.572l0,3.61c0,0.242 0.064,0.438 0.195,0.586c0.129,0.148 0.324,0.222 0.586,0.222c0.27,0 0.467,-0.074 0.592,-0.222c0.127,-0.148 0.189,-0.344 0.189,-0.586c0,-1.149 -0.084,-2.155 -0.25,-3.017c-0.166,-0.862 -0.375,-1.646 -0.625,-2.351c-0.252,-0.705 -0.521,-1.374 -0.809,-2.007c-0.287,-0.633 -0.557,-1.3 -0.809,-2c-0.252,-0.701 -0.461,-1.473 -0.627,-2.317c-0.166,-0.844 -0.248,-1.832 -0.248,-2.963c0,-0.359 0.061,-0.68 0.182,-0.963c0.121,-0.283 0.297,-0.525 0.525,-0.727c0.229,-0.202 0.5,-0.357 0.814,-0.465c0.314,-0.108 0.67,-0.162 1.064,-0.162c0.816,0 1.451,0.206 1.906,0.62c0.453,0.413 0.68,0.979 0.68,1.697l0,4.121c0,0.081 -0.023,0.148 -0.068,0.202c-0.045,0.054 -0.111,0.081 -0.201,0.081l-0.752,0l0,0.003z"/>
       <path id="svg_63" fill="#FFFFFF" d="m208.557,265.938c0,-0.233 0.063,-0.424 0.188,-0.573c0.127,-0.148 0.314,-0.226 0.566,-0.235l0.781,0c0.09,0 0.156,0.027 0.201,0.081c0.045,0.054 0.068,0.121 0.068,0.202l0,5.873c0,0.718 -0.227,1.284 -0.68,1.697c-0.455,0.413 -1.09,0.62 -1.906,0.62c-0.395,0 -0.75,-0.054 -1.064,-0.162c-0.314,-0.108 -0.586,-0.263 -0.814,-0.464c-0.229,-0.202 -0.404,-0.445 -0.525,-0.728c-0.121,-0.283 -0.182,-0.604 -0.182,-0.963l0,-14.656c0,-0.719 0.227,-1.284 0.68,-1.697c0.453,-0.413 1.088,-0.62 1.906,-0.62c0.385,0 0.738,0.054 1.057,0.162c0.318,0.108 0.594,0.263 0.822,0.465c0.229,0.202 0.404,0.444 0.525,0.727c0.121,0.283 0.182,0.604 0.182,0.963l0,6.034c0,0.08 -0.023,0.148 -0.068,0.202c-0.045,0.054 -0.111,0.081 -0.201,0.081l-0.754,0c-0.262,0 -0.457,-0.074 -0.586,-0.222c-0.131,-0.148 -0.195,-0.339 -0.195,-0.573l0,-5.522c0,-0.243 -0.063,-0.438 -0.189,-0.586c-0.125,-0.148 -0.322,-0.223 -0.592,-0.223c-0.262,0 -0.457,0.074 -0.586,0.223c-0.131,0.148 -0.195,0.343 -0.195,0.586l0,14.654c0,0.242 0.063,0.438 0.188,0.586c0.127,0.148 0.324,0.222 0.594,0.222c0.26,0 0.455,-0.074 0.586,-0.222c0.129,-0.148 0.195,-0.344 0.195,-0.586l0,-5.346l-0.002,0z"/>
       <path id="svg_64" fill="#FFFFFF" d="m220.18,254.529c0.08,0 0.145,0.027 0.189,0.081c0.045,0.054 0.07,0.117 0.08,0.188l1.615,18.251c0.01,0.081 -0.016,0.157 -0.072,0.229c-0.059,0.072 -0.15,0.108 -0.277,0.108l-0.66,0c-0.225,0 -0.41,-0.065 -0.559,-0.195c-0.148,-0.13 -0.23,-0.289 -0.248,-0.478l-0.148,-2.573l-1.361,0l-0.148,2.573c-0.018,0.189 -0.1,0.348 -0.248,0.478c-0.148,0.13 -0.336,0.195 -0.559,0.195l-0.66,0c-0.127,0 -0.219,-0.036 -0.277,-0.108c-0.059,-0.072 -0.082,-0.148 -0.074,-0.229l1.617,-18.251c0.008,-0.072 0.035,-0.135 0.08,-0.188c0.045,-0.054 0.107,-0.081 0.189,-0.081l1.521,0zm-1.36,14.102l1.184,0l-0.592,-10.075l-0.592,10.075z"/>
       <path id="svg_65" fill="#FFFFFF" d="m233.379,254.529c0.09,0 0.156,0.027 0.201,0.081c0.045,0.054 0.068,0.121 0.068,0.202l0,18.291c0,0.081 -0.023,0.148 -0.068,0.202c-0.045,0.054 -0.111,0.081 -0.201,0.081l-0.754,0c-0.234,0 -0.414,-0.056 -0.539,-0.168c-0.125,-0.112 -0.201,-0.263 -0.229,-0.451c0,-0.108 -0.033,-0.359 -0.102,-0.754c-0.066,-0.395 -0.152,-0.873 -0.256,-1.434c-0.104,-0.561 -0.219,-1.179 -0.344,-1.852c-0.125,-0.674 -0.252,-1.349 -0.377,-2.027c-0.125,-0.678 -0.244,-1.327 -0.357,-1.946c-0.111,-0.62 -0.203,-1.154 -0.275,-1.603l0.135,9.441c0.008,0.234 -0.055,0.424 -0.189,0.573c-0.135,0.148 -0.332,0.222 -0.592,0.222l-0.754,0c-0.09,0 -0.158,-0.027 -0.203,-0.081c-0.045,-0.054 -0.066,-0.121 -0.066,-0.202l0,-18.291c0,-0.081 0.021,-0.148 0.066,-0.202c0.045,-0.054 0.113,-0.081 0.203,-0.081l0.754,0c0.225,0 0.406,0.061 0.545,0.182c0.139,0.121 0.219,0.281 0.236,0.478c0.018,0.144 0.059,0.438 0.121,0.882c0.063,0.444 0.143,0.974 0.242,1.589c0.1,0.615 0.207,1.284 0.324,2.007c0.115,0.723 0.234,1.432 0.355,2.128c0.121,0.696 0.238,1.345 0.352,1.946c0.111,0.602 0.213,1.096 0.303,1.482l-0.135,-10.008c0,-0.207 0.072,-0.372 0.215,-0.499c0.145,-0.126 0.332,-0.189 0.566,-0.189l0.755,0l0,0.001z"/>
      </g>
     </g>
    </g>
    <g id="svg_66" opacity="0.3">
     <polygon id="svg_67" fill="#ABDFF9" points="287.574,103.656 274.506,103.656 170.59,327.347 202.18,327.347 287.574,137.148    "/>
     <path id="svg_68" fill="#ABDFF9" d="m265.947,103.656l-27.299,0c0,0 -103.443,212.235 -103.619,212.238l0,11.454l25.523,0l105.395,-223.692z"/>
    </g>
   </g>
   <g id="svg_69">
    <path id="svg_70" fill="#D1D3D4" d="m120.186,341.156c0,4.145 -15.449,7.504 -34.506,7.504c-19.059,0 -34.508,-3.36 -34.508,-7.504c0,-4.146 15.449,-7.506 34.508,-7.506c19.056,0 34.506,3.36 34.506,7.506z"/>
    <g id="svg_71">
     <path id="svg_72" fill="#F99B2D" d="m59.883,249.455c0,0 -4.125,4.549 -12.416,-4.84c0,0 10.789,-2.132 12.66,4.212l-0.244,0.628z"/>
     <path id="svg_73" fill="#F99B2D" d="m60.338,248.81c0,0 6.143,0.068 4.898,-12.394c0,0 -8.898,6.46 -5.523,12.146l0.625,0.248z"/>
     <path id="svg_74" fill="#F495BF" d="m85.141,219.394c0,0 -5.633,2.443 -9.318,-9.528c0,0 10.709,2.507 9.803,9.056l-0.485,0.472z"/>
     <path id="svg_75" fill="#F495BF" d="m86.184,218.614c0,0 5.564,2.594 9.572,-9.273c0,0 -10.773,2.218 -10.043,8.79l0.471,0.483z"/>
     <path id="svg_76" fill="#F495BF" d="m84.992,229.482c0,0 -5.994,2.598 -9.912,-10.131c0,0 11.387,2.663 10.422,9.629l-0.51,0.502z"/>
     <path id="svg_77" fill="#F495BF" d="m86.1,228.653c0,0 5.918,2.757 10.176,-9.86c0,0 -11.455,2.356 -10.676,9.344l0.5,0.516z"/>
     <path id="svg_78" fill="#F495BF" d="m84.801,240.945c0,0 -6.625,2.872 -10.961,-11.203c0,0 12.594,2.946 11.527,10.649l-0.566,0.554z"/>
     <path id="svg_79" fill="#F495BF" d="m86.025,240.028c0,0 6.545,3.049 11.254,-10.904c0,0 -12.666,2.606 -11.807,10.336l0.553,0.568z"/>
     <path id="svg_80" fill="#F495BF" d="m84.799,253.021c0,0 -6.641,2.878 -10.982,-11.229c0,0 12.621,2.952 11.549,10.672l-0.567,0.557z"/>
     <path id="svg_81" fill="#F495BF" d="m86.025,252.102c0,0 6.559,3.055 11.281,-10.928c0,0 -12.695,2.611 -11.834,10.357l0.553,0.571z"/>
     <path id="svg_82" fill="#F495BF" d="m83.758,262.029c0,0 -4.771,2.07 -7.891,-8.066c0,0 9.068,2.121 8.299,7.667l-0.408,0.399z"/>
     <path id="svg_83" fill="#F495BF" d="m84.68,261.667c0,0 4.379,2.803 9.076,-6.706c0,0 -9.291,0.65 -9.416,6.249l0.34,0.457z"/>
     <path id="svg_84" fill="#F495BF" d="m84.08,269.406c0,0 3.6,2.302 7.455,-5.51c0,0 -7.629,0.533 -7.732,5.133l0.277,0.377z"/>
     <path id="svg_85" fill="#F495BF" d="m83.936,269.406c0,0 -3.6,2.302 -7.457,-5.51c0,0 7.633,0.533 7.734,5.133l-0.277,0.377z"/>
     <path id="svg_86" fill="#F99B2D" d="m64.186,259.077c0,0 -4.742,5.227 -14.27,-5.56c0,0 12.398,-2.45 14.551,4.839l-0.281,0.721z"/>
     <path id="svg_87" fill="#F99B2D" d="m64.707,258.337c0,0 7.057,0.076 5.629,-14.243c0,0 -10.226,7.421 -6.35,13.956l0.721,0.287z"/>
     <path id="svg_88" fill="#F99B2D" d="m67.986,269.431c0,0 -5.301,5.843 -15.949,-6.215c0,0 13.859,-2.739 16.264,5.408l-0.315,0.807z"/>
     <path id="svg_89" fill="#F99B2D" d="m68.572,268.603c0,0 7.887,0.086 6.293,-15.922c0,0 -11.435,8.297 -7.1,15.602l0.807,0.32z"/>
     <path id="svg_90" fill="#F99B2D" d="m71.334,281.421c0,0 -5.746,5.405 -15.408,-7.458c0,0 14.033,-1.633 15.785,6.679l-0.377,0.779z"/>
     <path id="svg_91" fill="#F99B2D" d="m71.982,280.642c0,0 7.855,0.71 7.531,-15.374c0,0 -12.055,7.369 -8.313,14.991l0.782,0.383z"/>
     <g id="svg_92">
      <path id="svg_93" fill="#82B1DF" d="m107.662,251.709c0,0 4.313,4.371 12.199,-5.357c0,0 -10.865,-1.676 -12.473,4.74l0.274,0.617z"/>
      <path id="svg_94" fill="#82B1DF" d="m107.18,251.085c0,0 -6.133,0.326 -5.414,-12.178c0,0 9.164,6.079 6.029,11.902l-0.615,0.276z"/>
      <path id="svg_95" fill="#82B1DF" d="m103.77,261.504c0,0 4.955,5.021 14.021,-6.158c0,0 -12.49,-1.924 -14.334,5.447l0.313,0.711z"/>
      <path id="svg_96" fill="#82B1DF" d="m103.215,260.785c0,0 -7.047,0.375 -6.223,-13.994c0,0 10.531,6.987 6.93,13.679l-0.707,0.315z"/>
      <path id="svg_97" fill="#82B1DF" d="m100.402,272.01c0,0 5.543,5.612 15.678,-6.882c0,0 -13.963,-2.153 -16.025,6.088l0.347,0.794z"/>
      <path id="svg_98" fill="#82B1DF" d="m99.785,271.206c0,0 -7.877,0.419 -6.955,-15.643c0,0 11.77,7.81 7.746,15.29l-0.791,0.353z"/>
      <path id="svg_99" fill="#82B1DF" d="m97.564,284.129c0,0 5.967,5.158 15.082,-8.099c0,0 -14.088,-1.042 -15.492,7.335l0.41,0.764z"/>
      <path id="svg_100" fill="#82B1DF" d="m96.883,283.377c0,0 -7.818,1.04 -8.17,-15.044c0,0 12.354,6.854 8.934,14.629l-0.764,0.415z"/>
      <path id="svg_101" stroke-miterlimit="10" stroke-width="0.5511" stroke="#000022" fill="none" d="m93.576,301.432c0,0 2.211,-23.684 17,-57.796"/>
      <path id="svg_102" fill="#82B1DF" d="m109.84,243.922c0,0 -4.01,-4.651 6.32,-11.734c0,0 0.799,10.968 -5.727,12.053l-0.593,-0.319z"/>
     </g>
     <path id="svg_103" stroke-miterlimit="10" stroke-width="0.5511" stroke="#000022" fill="none" d="m81.57,299.606c0,0 6.016,-68.994 3.486,-88.73"/>
     <path id="svg_104" fill="#F495BF" d="m85.164,211.355c0,0 5.457,-2.814 -1.477,-13.244c0,0 -4.84,9.876 0.807,13.32l0.67,-0.076z"/>
     <path id="svg_105" stroke-miterlimit="10" stroke-width="0.5511" stroke="#000022" fill="none" d="m76.045,298.541c0,0 -3.203,-23.569 -19.416,-57.03"/>
     <path id="svg_106" fill="#071938" d="m106.553,339.84c0,0.559 -0.453,1.011 -1.012,1.011l-39.727,0c-0.557,0 -1.012,-0.452 -1.012,-1.011l-2.023,-48.077c0,-0.559 0.453,-1.012 1.012,-1.012l43.775,0c0.559,0 1.012,0.453 1.012,1.012l-2.025,48.077z"/>
    </g>
   </g>
   <path id="svg_107" fill="#00B2D6" d="m174.189,65.887c0.117,-0.672 0.18,-1.364 0.18,-2.072c0,-5.874 -4.218,-10.684 -9.567,-11.113c-1.068,-3.393 -4.047,-5.835 -7.558,-5.835c-0.844,0 -1.658,0.142 -2.423,0.404c-1.441,-4.288 -5.254,-7.35 -9.73,-7.35c-3.981,0 -7.436,2.424 -9.165,5.978c-1.063,-0.563 -2.257,-0.882 -3.521,-0.882c-2.844,0 -5.339,1.605 -6.752,4.019c-1.514,-0.95 -3.271,-1.496 -5.148,-1.496c-5.2,0 -9.492,4.176 -10.151,9.585c-4.217,0.372 -7.541,4.14 -7.606,8.763l71.441,0l0,-0.001z"/>
   <path id="svg_108" fill="#00B2D6" d="m364.135,83.517c0.117,-0.672 0.18,-1.364 0.18,-2.072c0,-5.874 -4.218,-10.684 -9.567,-11.113c-1.068,-3.394 -4.047,-5.835 -7.558,-5.835c-0.844,0 -1.658,0.142 -2.423,0.404c-1.441,-4.288 -5.254,-7.35 -9.73,-7.35c-3.981,0 -7.436,2.424 -9.165,5.978c-1.063,-0.563 -2.257,-0.882 -3.521,-0.882c-2.844,0 -5.339,1.605 -6.752,4.019c-1.514,-0.95 -3.272,-1.497 -5.148,-1.497c-5.2,0 -9.492,4.176 -10.151,9.585c-4.217,0.372 -7.541,4.14 -7.606,8.763l71.441,0z"/>
   <g id="svg_109">
    <g id="svg_110">
     <path id="svg_111" fill="#D1D3D4" d="m377.734,372.905c0,4.145 -26.053,7.504 -58.188,7.504c-32.133,0 -58.184,-3.359 -58.184,-7.504c0,-4.146 26.051,-7.506 58.184,-7.506c32.136,-0.001 58.188,3.359 58.188,7.506z"/>
     <g id="svg_112">
      <path id="svg_113" fill="#A9CFEA" d="m309.469,176.615c0,0 -3.84,5.002 -3.217,27.04c0.49,17.303 3.699,24.104 6.586,43.117l6.711,-0.003c0,0.001 -12.891,-61.496 -10.08,-70.154z"/>
      <polygon id="svg_114" fill="#F69583" points="367.791,360.91 362.367,364.525 351.119,348.089 360.07,341.965     "/>
      <polygon id="svg_115" fill="#F69583" points="291.492,364.484 284.832,362.915 289.82,343.519 300.365,346.053     "/>
      <path id="svg_116" fill="#071938" d="m344.404,307.173c-0.309,-5.582 2.354,-48.941 -2.32,-60.4l-29.246,0c-6.471,10.39 -13.119,49.498 -16.307,61.78c-3.318,12.776 -8.412,34.561 -8.412,34.561l13.103,3.142c0,0 1.914,-5.143 10.24,-26.069c7.555,-18.991 11.977,-40.798 12.414,-43.316c0,0 2.637,23.854 6.016,37.46c1.773,7.147 24.228,39.674 24.228,39.674l10.297,-6.78c0.001,-0.001 -19.64,-33.343 -20.013,-40.052z"/>
      <path id="svg_117" fill="#F99B2D" d="m343.852,254.784c-0.168,-7.222 -3.131,-15.663 -4.359,-20.879c-4.645,-19.733 -7.785,-47.298 -11.643,-58.873c-1.59,-4.764 -5.182,-5.319 -6.063,-5.162c-2.135,0.386 -9.008,2.565 -9.008,2.565c-11.773,5.549 2.17,56.797 8.182,82.348l22.891,0l0,0.001z"/>
      <path id="svg_118" fill="#F69583" d="m315.412,137.89c-9.223,-8.158 -24.582,1.198 -19.549,14.846l-0.043,-0.08c0,0 0.066,0.162 0.176,0.442c0.041,0.103 0.078,0.206 0.115,0.308c0.389,1.023 1.086,3 1.627,5.263c0.184,0.767 0.176,1.439 0.137,2.387c-0.063,1.427 1.188,1.054 1.451,0.92c0.728,-0.371 1.281,-0.68 1.281,-0.681c0.105,0.162 0.207,0.338 0.307,0.493c0.672,1.079 1.344,1.923 2.004,2.578c2.684,2.628 5.305,2.115 7.908,1.212l1.953,6.86l9.008,-2.565c0,0 -3.631,-4.454 -4.537,-6.979c-0.473,-1.303 1.293,-3.408 1.893,-4.462c1.029,-1.815 1.978,-4.21 1.908,-7.35c-0.139,-6.204 -1.981,-9.959 -5.639,-13.192z"/>
      <g id="svg_119">
       <g id="svg_120">
        <path id="svg_121" fill="none" d="m337.93,263.372"/>
       </g>
      </g>
      <g id="svg_122">
       <path id="svg_123" fill="#F99B2D" d="m285.81,205.105c5.557,-7.826 22.274,-25.148 25.52,-28.999c3.719,-4.41 7.752,-3.53 10.066,-2.04c1.976,1.271 4.746,6.219 1.851,10.534c-2.892,4.314 -19.664,22.575 -27.412,28.964c-2.258,1.864 -5.791,5.168 -10.002,1.288c-3.315,-3.054 -1.558,-7.589 -0.023,-9.747z"/>
       <g id="svg_124">
        <path id="svg_125" fill="#F99B2D" d="m264.486,191.476c0,0 22.584,11.605 27.086,13.871c3.268,1.647 4.494,5.061 3.455,7.607c-0.889,2.173 -3.705,4.796 -8.475,2.739c-4.77,-2.055 -25.514,-19.289 -25.514,-19.289l3.448,-4.928z"/>
        <rect id="svg_126" fill="#071938" height="14.482" width="2.615" transform="matrix(0.5858 -0.8104 0.8104 0.5858 -46.8068 283.9235)" y="180.515" x="253.069"/>
        <path id="svg_127" fill="#F69583" d="m261.494,196.107c0,0 -5.957,1.2 -11.986,-7.136c-1.654,-2.286 -0.111,-4.568 3.504,-1.132c3.062,2.919 8.785,3.661 6.586,2.07c-1.432,-1.032 -3.111,-2.424 -1.781,-2.5c2.781,-0.16 6.328,4.951 6.328,4.951l-2.651,3.747z"/>
       </g>
      </g>
      <g id="svg_128">
       <g id="svg_129">
        <g id="svg_130">
         <g id="svg_131">
          <path id="svg_132" fill="#071938" d="m299.73,152.952c0.287,0 0.547,0.116 0.734,0.324c0.152,0.185 0.23,0.42 0.23,0.673c0,0.499 -0.334,1.009 -0.965,1.009c-0.301,0 -0.561,-0.118 -0.742,-0.33c-0.158,-0.181 -0.242,-0.417 -0.242,-0.679c0.001,-0.494 0.337,-0.997 0.985,-0.997z"/>
         </g>
        </g>
       </g>
       <path id="svg_133" stroke-miterlimit="10" stroke-linejoin="round" stroke-linecap="round" stroke-width="0.543" stroke="#071938" fill="none" d="m302.035,150.429c0,0 -1.082,-1.341 -3.492,-0.526"/>
      </g>
      <path id="svg_134" fill="#F37784" d="m307.773,157.32c0.387,0.762 -0.244,1.86 -1.412,2.455c-1.168,0.594 -2.428,0.458 -2.814,-0.303c-0.391,-0.765 0.24,-1.864 1.408,-2.458c1.168,-0.595 2.428,-0.459 2.818,0.306z"/>
      <path id="svg_135" fill="#FFFFFF" d="m303.721,165.061c0,0 2.297,-2.65 1.314,-4.438l-3.453,2.159c0,0 1.203,1.707 2.139,2.279z"/>
      <path id="svg_136" fill="#071938" d="m284.576,362.856l6.916,1.628l-0.82,3.788c0,0 -0.383,3.158 -1.236,3.101c-4.039,-0.268 -17.471,-2.696 -21.402,-4.985c-1.764,-1.027 -0.275,-2.984 4.281,-3.878c3.591,-0.695 12.261,0.346 12.261,0.346z"/>
      <path id="svg_137" fill="#F69583" d="m271.047,362.801c0,0 -1.361,1.282 3.715,2.664c3.197,0.872 6.945,1.672 15.91,2.808l0.896,-3.948l-6.685,-1.604c0,0 -10.053,-1.239 -13.836,0.08z"/>
      <path id="svg_138" fill="#071938" d="m360.941,362.628l5.998,-3.807l2.137,3.234c0,0 1.711,2.434 1.307,3.231c-0.523,1.03 -14.094,10.428 -18.48,11.641c-1.967,0.544 -2.324,-1.889 0.221,-5.771c2.013,-3.055 8.817,-8.528 8.817,-8.528z"/>
      <path id="svg_139" fill="#F69583" d="m351.445,372.266c0,0 -0.035,1.87 4.5,-0.793c2.859,-1.679 6.193,-3.587 13.273,-9.205l-2.34,-3.613l-6.065,3.602c0.001,-0.001 -7.668,6.381 -9.368,10.009z"/>
      <path id="svg_140" fill="#071938" d="m294.295,147.247c0,0 1.211,1.258 7.287,-1.409c3.936,-1.729 2.777,3.109 7.25,5.311c3.758,1.85 2.6,7.028 2.063,7.793c-1.225,1.736 -0.035,5.678 2.596,9.179c2.451,3.259 3.635,2.516 6.059,15.143c2.615,13.634 14.023,20.461 17.518,18.497c0,0 -3.307,-6.92 -3.074,-25.146c0.139,-10.964 -8.822,-13.749 -8.822,-22.074c0,-8.324 -6.182,-22.81 -15.641,-21.388c-9.166,1.376 -15.935,7.722 -15.236,14.094z"/>
      <path id="svg_141" fill="#F69583" d="m311.492,152.11c0.623,1.309 0.344,2.745 -0.625,3.208c-0.973,0.462 -2.264,-0.221 -2.889,-1.529c-0.625,-1.306 -0.348,-2.74 0.621,-3.203c0.969,-0.465 2.264,0.218 2.893,1.524z"/>
      <path id="svg_142" fill="#071938" d="m294.912,148.484c0,0 -2.5,-0.667 -2.193,-2.938c0.365,-2.679 3.762,-5.314 3.762,-5.314s-2.234,4.522 -1.608,7.108c0.068,0.278 0.039,1.144 0.039,1.144z"/>
     </g>
    </g>
    <polygon id="svg_143" fill="url(#SVGID_1_)" points="258.207,188.82 305.743,169.12 271.365,135.541 249.31,182.563   "/>
   </g>
   <g id="svg_144">
    <g id="svg_145">
     <path id="svg_146" fill="#F69583" d="m155.266,258.638c0,0 1.34,3.811 1.34,9.254c0,2.112 -0.654,5.406 -3.732,6.197c-0.32,0.083 -1.178,0.007 -1.328,-0.273c-0.195,-0.366 -0.184,-0.728 0.463,-1.409c1.283,-1.357 1.693,-2.507 1.717,-5.012c0.018,-1.8 -0.729,-3.868 -1.367,-3.868c-0.613,0 -1.688,2.099 -2.027,2.517c-1.051,1.296 -2.785,0.975 -1.861,-0.5c2.268,-3.62 2.088,-6.906 2.088,-6.906l4.707,0z"/>
    </g>
    <path id="svg_147" fill="#F69583" d="m146.697,228.613c0.479,1.847 0.82,3.018 0.82,3.018l3.109,27.739l4.777,0c0,0 -0.242,-15.442 -1.211,-30.757l-7.495,0z"/>
    <path id="svg_148" fill="#D1D3D4" d="m171.609,379.836c0,4.145 -18.602,7.504 -41.551,7.504c-22.945,0 -41.549,-3.359 -41.549,-7.504c0,-4.146 18.604,-7.506 41.549,-7.506c22.95,0 41.551,3.36 41.551,7.506z"/>
    <path id="svg_149" fill="#EA507E" d="m130.941,172.883c0,0 4.912,-1.499 6.84,-10.568c0.33,-1.557 1.289,-5.549 1.545,-7.927c0.908,-8.401 -3.994,-14.757 -14.822,-14.757c-4.771,0 -11.469,2.77 -15.721,10.826c-5.143,9.737 -1.162,12.245 -5.545,16.756c-4.381,4.51 -4.639,7.732 -1.418,12.115c3.221,4.382 3.031,10.251 1.486,13.731c-1.549,3.48 -3.561,43.766 5.486,39.928c16.16,-6.858 22.148,-55.713 22.148,-55.713l0,-4.391l0.001,0z"/>
    <path id="svg_150" fill="#82B1DF" d="m95.146,222.255c-0.25,2.563 0.215,4.659 3.465,6.308c2.299,1.165 6.197,-1.708 7.084,-4.127c1.361,-3.716 4.139,-14.627 4.139,-14.627c0.252,-0.811 -0.328,-21.806 -0.867,-21.019c-6.094,8.901 -13.821,33.465 -13.821,33.465z"/>
    <path id="svg_151" fill="#82B1DF" d="m144.973,188.365c-3.559,-2.388 -13.402,-6.458 -13.402,-6.458l-11.451,0c0,0 -7.01,4.572 -10.855,6.281c0,0 -4.262,8.353 0.57,21.621c4.143,11.382 1.363,37.181 1.363,37.181l29.109,0c0,0 -0.631,-25.202 3.352,-36.682c5.159,-14.873 1.314,-21.943 1.314,-21.943z"/>
    <polygon id="svg_152" fill="#E78779" points="131.57,181.907 125.947,187.27 120.119,181.907 120.119,172.323 131.57,172.323   "/>
    <path id="svg_153" fill="#F69583" d="m137.947,165.717c-0.988,4.265 -6.959,12.333 -12.34,12.333c-4.623,0 -12.059,-6.711 -12.385,-11.138c0,0 -1.152,-7.903 -1.316,-10.561c-0.488,-7.863 6.865,-14.259 13.701,-14.259l0,0c6.842,0 14.457,6.401 13.898,14.259c-0.187,2.662 -0.958,6.769 -1.558,9.366z"/>
    <path id="svg_154" fill="#82B1DF" d="m147.061,234.1c4.709,1.874 7.943,-0.37 7.943,-0.37c-1.111,-14.425 -2.461,-30.063 -3.383,-34.141c-2.131,-9.421 -7.963,-12.086 -7.963,-12.086s0.061,9.312 0,22.806c-0.033,8.022 3.403,23.791 3.403,23.791z"/>
    <g id="svg_155">
     <path id="svg_156" fill="#F69583" d="m120.053,369.516c0,0 -1.109,2.157 -1.48,2.736c-1.447,2.257 -5.281,7.201 -7.164,9.028c-1.393,1.351 -5.668,2.665 -7.277,1.471c-1.355,-1.007 -1.203,-3.832 1.275,-5.955c5.111,-4.379 7.193,-7.322 7.193,-7.322l7.453,0.042z"/>
     <path id="svg_157" fill="#EA507E" d="m105.986,376.295c0,0 -1.484,1.853 -0.129,2.859c1.184,0.88 4.033,1.327 6.053,-0.857c2.285,-2.472 3.139,-3.628 7.211,-8.76c0.381,-0.478 0.725,-1.357 0.855,-2.113l0.076,2.092c0,0 -0.063,1.639 -1.369,3.515c-1.533,2.201 -4.451,5.91 -6.211,7.855c-1.637,1.809 -5.631,3.107 -7.457,2.333c0,0 -0.635,-0.28 -0.885,-0.468c-2.085,-1.579 -0.745,-4.265 1.856,-6.456z"/>
    </g>
    <g id="svg_158">
     <path id="svg_159" fill="#F69583" d="m131.928,369.516c0,0 1.109,2.157 1.48,2.736c1.449,2.257 5.279,7.201 7.164,9.028c1.393,1.351 5.668,2.665 7.277,1.471c1.355,-1.007 1.201,-3.832 -1.275,-5.955c-5.111,-4.379 -7.143,-7.373 -7.143,-7.373l-7.503,0.093z"/>
     <path id="svg_160" fill="#EA507E" d="m145.994,376.295c0,0 1.484,1.853 0.127,2.859c-1.182,0.88 -4.033,1.327 -6.051,-0.857c-2.283,-2.472 -3.137,-3.628 -7.211,-8.76c-0.381,-0.478 -0.725,-1.357 -0.854,-2.113l-0.078,2.092c0,0 0.061,1.639 1.369,3.515c1.533,2.201 4.451,5.91 6.209,7.855c1.639,1.809 5.633,3.107 7.459,2.333c0,0 0.637,-0.28 0.885,-0.468c2.087,-1.579 0.747,-4.265 -1.855,-6.456z"/>
    </g>
    <path id="svg_161" fill="#F69583" d="m122.828,299.799l-16.002,0c0.226,7.191 0.037,14.197 0.447,19.471c0.578,7.458 5.326,50.205 5.326,50.205s1.734,0.962 4.473,0.962c2.715,0 2.904,-3.013 2.904,-3.013l2.852,-67.625z"/>
    <path id="svg_162" fill="#F69583" d="m127.949,300.165l4.049,67.459c0,0 0.393,2.927 3.105,2.927c2.738,0 4.389,-1.025 4.389,-1.025s4.365,-42.797 4.92,-50.256c0.4,-5.395 -0.033,-12.009 0.18,-19.104l-16.643,0l0,-0.001z"/>
    <path id="svg_163" fill="#071938" d="m124.148,303.092l1.693,-28.428l1.678,28.428l17.793,0c2.021,-0.915 0.244,-43.78 -5.02,-56.377l-29.032,0c-5.234,12.533 -5.668,36.987 -4.922,56.377l17.81,0z"/>
    <g id="svg_164">
     <g id="svg_165">
      <g id="svg_166">
       <path id="svg_167" fill="#071938" d="m124.137,169.236c0.059,0 0.123,-0.004 0.18,-0.007c0.104,-0.013 0.186,-0.103 0.174,-0.206c-0.01,-0.105 -0.094,-0.191 -0.209,-0.175c-0.383,0.038 -0.674,-0.073 -0.703,-0.158c-0.016,-0.036 0.021,-0.167 0.338,-0.382c0.953,-0.648 1.063,-2.905 1.068,-2.998c0.004,-0.105 -0.076,-0.194 -0.186,-0.2c-0.107,-0.003 -0.191,0.078 -0.193,0.181c-0.027,0.6 -0.242,2.255 -0.9,2.704c-0.422,0.28 -0.582,0.558 -0.486,0.823c0.104,0.298 0.512,0.418 0.917,0.418z"/>
      </g>
     </g>
     <g id="svg_168">
      <g id="svg_169">
       <g id="svg_170">
        <path id="svg_171" fill="#071938" d="m118.207,163.448c-0.285,0 -0.543,0.116 -0.727,0.321c-0.152,0.185 -0.23,0.416 -0.23,0.667c0,0.494 0.332,0.999 0.957,0.999c0.299,0 0.555,-0.117 0.734,-0.326c0.156,-0.179 0.238,-0.413 0.238,-0.672c0.001,-0.491 -0.329,-0.989 -0.972,-0.989z"/>
       </g>
      </g>
     </g>
     <g id="svg_172">
      <g id="svg_173">
       <g id="svg_174">
        <path id="svg_175" fill="#071938" d="m130.158,163.448c0.285,0 0.543,0.116 0.727,0.321c0.15,0.185 0.229,0.416 0.229,0.667c0,0.494 -0.33,0.999 -0.955,0.999c-0.299,0 -0.557,-0.117 -0.734,-0.326c-0.156,-0.179 -0.238,-0.413 -0.238,-0.672c-0.001,-0.491 0.329,-0.989 0.971,-0.989z"/>
       </g>
      </g>
     </g>
     <g id="svg_176">
      <path id="svg_177" stroke-miterlimit="10" stroke-linejoin="round" stroke-linecap="round" stroke-width="0.5377" stroke="#071938" fill="none" d="m132.441,160.951c0,0 -1.072,-1.329 -3.461,-0.521"/>
      <path id="svg_178" stroke-miterlimit="10" stroke-linejoin="round" stroke-linecap="round" stroke-width="0.5377" stroke="#071938" fill="none" d="m116.188,160.951c0,0 1.07,-1.329 3.459,-0.521"/>
     </g>
     <g id="svg_179">
      <path id="svg_180" fill="#F37784" d="m120.652,168.706c0,0.85 -1.049,1.536 -2.35,1.536c-1.297,0 -2.346,-0.687 -2.346,-1.536c0,-0.846 1.049,-1.532 2.346,-1.532c1.302,0 2.35,0.686 2.35,1.532z"/>
      <path id="svg_181" fill="#F37784" d="m132.408,169.03c0,0.847 -1.053,1.532 -2.35,1.532c-1.297,0 -2.348,-0.685 -2.348,-1.532c0,-0.85 1.051,-1.536 2.348,-1.536c1.297,0 2.35,0.686 2.35,1.536z"/>
     </g>
     <path id="svg_182" fill="#FFFFFF" d="m121.191,171.669c0.053,1.664 1.551,3.003 3.395,3.003c1.846,0 3.344,-1.339 3.395,-3.003l-6.79,0z"/>
    </g>
    <path id="svg_183" fill="#EA507E" d="m139.129,159.89c0,0 -1.988,-0.813 -3.316,1.628c0,0 0.258,-5.97 -2.158,-9.825c0,0 -3.455,4.87 -9.668,5.073c-6.213,0.204 -9.85,2.381 -11.49,6.649c0,0 -2.928,-6.357 0,-13.167c2.633,-6.126 9.479,-9.273 13.84,-9.109c4.358,0.166 15.786,5.839 12.792,18.751z"/>
    <path id="svg_184" fill="#F69583" d="m139.516,161.898c-0.193,1.41 -1.195,2.436 -2.238,2.295c-1.047,-0.146 -1.738,-1.401 -1.547,-2.811c0.191,-1.407 1.191,-2.434 2.236,-2.292c1.045,0.14 1.738,1.398 1.549,2.808z"/>
    <path id="svg_185" fill="#82B1DF" d="m131.57,188.014l-11.451,0c0,0 -0.902,-8.505 0,-8.505c0,0 5.32,1.568 11.451,0c0.448,-0.114 0,8.505 0,8.505z"/>
    <path id="svg_186" fill="#00001E" d="m146.125,303.963c0,0.352 -0.246,0.637 -0.549,0.637l-18.035,0c-0.303,0 -0.551,-0.286 -0.551,-0.637l0,-2.669c0,-0.352 0.248,-0.637 0.551,-0.637l18.035,0c0.303,0 0.549,0.285 0.549,0.637l0,2.669z"/>
    <path id="svg_187" fill="#00001E" d="m124.795,303.963c0,0.352 -0.25,0.637 -0.555,0.637l-18.24,0c-0.307,0 -0.553,-0.286 -0.553,-0.637l0,-2.669c0,-0.352 0.246,-0.637 0.553,-0.637l18.24,0c0.305,0 0.555,0.285 0.555,0.637l0,2.669z"/>
    <polygon id="svg_188" fill="url(#SVGID_00000085232896530361715140000003709800068047185077_)" points="118.305,195.833     146.865,170.708 105.699,145.583 90.432,184.151   "/>
    <rect id="svg_189" fill="#00001E" height="17.815" width="28.031" y="184.151" x="90.432"/>
    <path id="svg_190" fill="#F69583" d="m104.338,223.136c0,0 -9.748,-21.627 -9.025,-23.425c0.389,-0.97 1.193,-5.056 1.295,-5.982c0.57,-5.212 -5.006,-9.144 -7.838,0.412c-0.627,2.112 0.674,5.091 1.092,6.309c0.271,0.793 0.391,1.84 0.391,1.84l4.865,22.844c0.553,2.517 2.838,4.21 5.664,3.558c2.511,-0.58 4.109,-3.041 3.556,-5.556z"/>
   </g>
  </g>
 </g>
</svg>